<svg xmlns="http://www.w3.org/2000/svg" viewBox="0 0 32 32" width="256" height="256">
  <rect x="0" y="0" width="32" height="32" rx="7" fill="#fff" stroke="#3b3fbf" stroke-width="2"></rect>
  <path d="M9 8 L6 8 L6 24 L9 24" fill="none" stroke="#3b3fbf" stroke-width="2.2" stroke-linecap="round" stroke-linejoin="round"></path>
  <path d="M23 8 L26 8 L26 24 L23 24" fill="none" stroke="#3b3fbf" stroke-width="2.2" stroke-linecap="round" stroke-linejoin="round"></path>
  <path d="M13 13 c0 -1.5 1.1 -2.6 2.6 -2.8 l0 1.4 c-0.8 0.2 -1.2 0.6 -1.2 1.3 l1.2 0 l0 3.4 l-2.6 0 z M18 13 c0 -1.5 1.1 -2.6 2.6 -2.8 l0 1.4 c-0.8 0.2 -1.2 0.6 -1.2 1.3 l1.2 0 l0 3.4 l-2.6 0 z" fill="#3b3fbf"></path>
</svg>